<?xml version="1.0" encoding="utf-8"?>
<!-- Generator: Adobe Illustrator 22.0.0, SVG Export Plug-In . SVG Version: 6.00 Build 0)  -->
<svg version="1.1" id="Layer_1" xmlns="http://www.w3.org/2000/svg" xmlns:xlink="http://www.w3.org/1999/xlink" x="0px" y="0px"
	 viewBox="0 0 1000 1000" style="enable-background:new 0 0 1000 1000;" xml:space="preserve">
<style type="text/css">
	.st0{display:none;opacity:0.65;fill:url(#SVGID_1_);stroke:#9945FF;stroke-width:19;stroke-miterlimit:10;}
	.st1{fill:none;}
	.st2{stroke:#000000;stroke-width:0.5;stroke-miterlimit:10;}
	.st3{font-family:'MyriadPro-Regular';}
	.st4{font-size:407.5425px;}
	.st5{fill:url(#SVGID_2_);}
	.st6{fill:url(#SVGID_3_);}
	.st7{fill:url(#SVGID_5_);}
	.st8{fill:none;stroke:#000000;stroke-width:8;stroke-miterlimit:10;}
	.st9{clip-path:url(#SVGID_6_);}
	.st10{fill:url(#SVGID_7_);}
</style>
<linearGradient id="SVGID_1_" gradientUnits="userSpaceOnUse" x1="1124.6902" y1="-119.843" x2="156.5926" y2="840.7427">
	<stop  offset="0" style="stop-color:#00FFDB"/>
	<stop  offset="0.2588" style="stop-color:#1EDBE2"/>
	<stop  offset="1" style="stop-color:#FF754A"/>
</linearGradient>
<circle class="st0" cx="500" cy="500" r="418.5"/>
<g>
	<rect x="169.8" y="609.4" class="st1" width="660.5" height="315.6"/>
	<text transform="matrix(1 0 0 1 169.75 898.7467)" class="st2 st3 st4">10X</text>
	<g>
		<linearGradient id="SVGID_2_" gradientUnits="userSpaceOnUse" x1="230.2732" y1="934.5261" x2="684.9692" y2="687.358">
			<stop  offset="0" style="stop-color:#00FFDB"/>
			<stop  offset="0.3971" style="stop-color:#9945FF"/>
			<stop  offset="0.7315" style="stop-color:#EB54BC"/>
			<stop  offset="1" style="stop-color:#FF754A"/>
		</linearGradient>
		<path class="st5" d="M265.9,667.3h-0.8l-46.1,24.9l-6.9-27.3l57.9-31h30.6v264.9h-34.6V667.3z"/>
		<linearGradient id="SVGID_3_" gradientUnits="userSpaceOnUse" x1="230.2732" y1="934.5261" x2="684.9692" y2="687.358">
			<stop  offset="0" style="stop-color:#00FFDB"/>
			<stop  offset="0.3971" style="stop-color:#9945FF"/>
			<stop  offset="0.7315" style="stop-color:#EB54BC"/>
			<stop  offset="1" style="stop-color:#FF754A"/>
		</linearGradient>
		<path class="st6" d="M573.2,763.4c0,90.1-33.4,139.8-92.1,139.8c-51.8,0-86.8-48.5-87.6-136.1c0-88.8,38.3-137.8,92.1-137.8
			C541.4,629.4,573.2,679.1,573.2,763.4z M429.3,767.5c0,68.9,21.2,108,53.8,108c36.7,0,54.2-42.8,54.2-110.4
			c0-65.2-16.7-108-53.8-108C452.2,657.1,429.3,695.4,429.3,767.5z"/>
		<linearGradient id="SVGID_5_" gradientUnits="userSpaceOnUse" x1="230.2732" y1="934.5261" x2="684.9692" y2="687.358">
			<stop  offset="0" style="stop-color:#00FFDB"/>
			<stop  offset="0.3971" style="stop-color:#9945FF"/>
			<stop  offset="0.7315" style="stop-color:#EB54BC"/>
			<stop  offset="1" style="stop-color:#FF754A"/>
		</linearGradient>
		<path class="st7" d="M769.2,898.7l-35-60.7c-14.3-23.2-23.2-38.3-31.8-54.2h-0.8c-7.7,15.9-15.5,30.6-29.8,54.6l-33,60.3h-40.8
			l84-139l-80.7-135.7h41.2l36.3,64.4c10.2,17.9,17.9,31.8,25.3,46.5h1.2c7.7-16.3,14.7-28.9,24.9-46.5l37.5-64.4h40.8l-83.5,133.7
			l85.6,141H769.2z"/>
	</g>
	<rect x="169.8" y="609.4" class="st1" width="660.5" height="315.6"/>
	<text transform="matrix(1 0 0 1 169.75 898.7467)" class="st8 st3 st4">10X</text>
</g>
<g>
	<defs>
		<rect id="SVGID_4_" x="245.7" y="75" width="508.5" height="471.6"/>
	</defs>
	<clipPath id="SVGID_6_">
		<use xlink:href="#SVGID_4_"  style="overflow:visible;"/>
	</clipPath>
	<g class="st9">
		
			<linearGradient id="SVGID_7_" gradientUnits="userSpaceOnUse" x1="284.5207" y1="448.6857" x2="710.0258" y2="927.4943" gradientTransform="matrix(1 0 0 -1 0 1002)">
			<stop  offset="8.000000e-02" style="stop-color:#9945FF"/>
			<stop  offset="0.3" style="stop-color:#8752F3"/>
			<stop  offset="0.5" style="stop-color:#5497D5"/>
			<stop  offset="0.6" style="stop-color:#43B4CA"/>
			<stop  offset="0.72" style="stop-color:#28E0B9"/>
			<stop  offset="0.97" style="stop-color:#19FB9B"/>
		</linearGradient>
		<path class="st10" d="M751.6,446.8l-83.9,93.3c-1.8,2-4,3.6-6.5,4.7c-2.5,1.1-5.1,1.7-7.8,1.7H255.5c-1.9,0-3.8-0.6-5.3-1.7
			c-1.6-1.1-2.8-2.6-3.6-4.4c-0.8-1.8-1-3.8-0.7-5.7s1.2-3.7,2.5-5.2l84-93.3c1.8-2,4-3.6,6.5-4.7s5.1-1.7,7.8-1.7h397.9
			c1.9,0,3.8,0.6,5.3,1.7c1.6,1.1,2.8,2.6,3.6,4.4c0.8,1.8,1,3.8,0.7,5.7C753.8,443.6,752.9,445.4,751.6,446.8z M667.7,258.9
			c-1.8-2-4-3.6-6.5-4.7c-2.5-1.1-5.1-1.7-7.8-1.7H255.5c-1.9,0-3.8,0.6-5.3,1.7c-1.6,1.1-2.8,2.6-3.6,4.4c-0.8,1.8-1,3.8-0.7,5.7
			s1.2,3.7,2.5,5.2l84,93.3c1.8,2,4,3.6,6.5,4.7c2.4,1.1,5.1,1.7,7.8,1.7h397.9c1.9,0,3.8-0.6,5.3-1.7c1.6-1.1,2.8-2.6,3.6-4.4
			c0.8-1.8,1-3.8,0.7-5.7c-0.3-1.9-1.2-3.7-2.5-5.2L667.7,258.9z M255.5,191.8h397.9c2.7,0,5.3-0.6,7.8-1.7c2.5-1.1,4.7-2.7,6.5-4.7
			L751.6,92c1.3-1.4,2.2-3.2,2.5-5.2c0.3-1.9,0.1-3.9-0.7-5.7c-0.8-1.8-2-3.3-3.6-4.4c-1.6-1.1-3.4-1.7-5.3-1.7H346.6
			c-2.7,0-5.3,0.6-7.8,1.7s-4.6,2.7-6.5,4.7l-84,93.3c-1.3,1.4-2.2,3.2-2.5,5.2c-0.3,1.9-0.1,3.9,0.7,5.7c0.8,1.8,2,3.3,3.6,4.4
			C251.7,191.2,253.6,191.8,255.5,191.8z"/>
	</g>
</g>
</svg>
