<?xml version="1.0" encoding="utf-8"?>
<!-- Generator: Adobe Illustrator 22.0.0, SVG Export Plug-In . SVG Version: 6.00 Build 0)  -->
<svg version="1.1" xmlns="http://www.w3.org/2000/svg" xmlns:xlink="http://www.w3.org/1999/xlink" x="0px" y="0px"
	 viewBox="0 0 1000 1000" style="enable-background:new 0 0 1000 1000;" xml:space="preserve">
<style type="text/css">
	.st0{fill:none;stroke:#231F20;stroke-width:35;stroke-linecap:round;stroke-miterlimit:10;}
	.st1{opacity:0.63;fill:none;stroke:#231F20;stroke-width:31;stroke-linecap:round;stroke-miterlimit:10;}
	.st2{stroke:#231F20;stroke-width:35;stroke-linecap:round;stroke-miterlimit:10;}
	
		.st3{display:none;opacity:0.65;fill:url(#SVGID_1_);stroke:#9945FF;stroke-width:19;stroke-miterlimit:10;enable-background:new    ;}
	.st4{clip-path:url(#SVGID_3_);}
	.st5{fill:url(#SVGID_4_);}
	.st6{fill:url(#SVGID_5_);}
	.st7{fill:url(#SVGID_6_);}
	.st8{fill:url(#SVGID_7_);stroke:#262626;stroke-width:14;stroke-miterlimit:10;}
</style>
<g id="Layer_2">
	<circle class="st0" cx="507.5" cy="488.5" r="455"/>
	<circle class="st1" cx="492.5" cy="511.5" r="455"/>
	<circle class="st2" cx="507.5" cy="488.5" r="455"/>
</g>
<g id="Layer_1">
	
		<linearGradient id="SVGID_1_" gradientUnits="userSpaceOnUse" x1="1124.6903" y1="1119.8429" x2="156.5927" y2="159.2574" gradientTransform="matrix(1 0 0 -1 0 1000)">
		<stop  offset="0" style="stop-color:#00FFDB"/>
		<stop  offset="0.2588" style="stop-color:#1EDBE2"/>
		<stop  offset="1" style="stop-color:#FF754A"/>
	</linearGradient>
	<circle class="st3" cx="500" cy="500" r="418.5"/>
	<g>
		<g>
			<defs>
				<rect id="SVGID_2_" x="208" y="173.8" width="484.7" height="449.5"/>
			</defs>
			<clipPath id="SVGID_3_">
				<use xlink:href="#SVGID_2_"  style="overflow:visible;"/>
			</clipPath>
			<g class="st4">
				
					<linearGradient id="SVGID_4_" gradientUnits="userSpaceOnUse" x1="244.9995" y1="627.933" x2="650.8298" y2="171.2639" gradientTransform="matrix(1 0 0 1 0 2)">
					<stop  offset="8.000000e-02" style="stop-color:#9945FF"/>
					<stop  offset="0.3" style="stop-color:#8752F3"/>
					<stop  offset="0.5" style="stop-color:#5497D5"/>
					<stop  offset="0.6" style="stop-color:#43B4CA"/>
					<stop  offset="0.72" style="stop-color:#28E0B9"/>
					<stop  offset="0.97" style="stop-color:#19FB9B"/>
				</linearGradient>
				<path class="st5" d="M690.8,528.1l-80.1,89.1c-1.7,1.9-3.8,3.4-6.2,4.5c-2.4,1.1-4.9,1.6-7.4,1.6H217.2c-1.8,0-3.6-0.6-5.1-1.6
					c-1.5-1.1-2.7-2.5-3.4-4.2c-0.8-1.7-1-3.6-0.7-5.4c0.3-1.8,1.1-3.5,2.4-5l80.2-89.1c1.7-1.9,3.8-3.4,6.2-4.5s4.9-1.6,7.4-1.6
					h379.9c1.8,0,3.6,0.6,5.1,1.6c1.5,1.1,2.7,2.5,3.4,4.2c0.8,1.7,1,3.6,0.7,5.4C692.9,525.1,692,526.8,690.8,528.1z M610.7,348.5
					c-1.7-1.9-3.8-3.4-6.2-4.5c-2.4-1.1-4.9-1.6-7.4-1.6H217.2c-1.8,0-3.6,0.6-5.1,1.6c-1.5,1.1-2.7,2.5-3.4,4.2
					c-0.8,1.7-1,3.6-0.7,5.4c0.3,1.8,1.1,3.5,2.4,5l80.2,89.1c1.7,1.9,3.8,3.4,6.2,4.5c2.3,1.1,4.9,1.6,7.4,1.6h379.9
					c1.8,0,3.6-0.6,5.1-1.6c1.5-1.1,2.7-2.5,3.4-4.2c0.8-1.7,1-3.6,0.7-5.4c-0.3-1.8-1.1-3.5-2.4-5L610.7,348.5z M217.4,285.2h379.6
					c2.6,0,5.1-0.6,7.4-1.6c2.4-1,4.5-2.6,6.2-4.5l80-89.1c1.2-1.3,2.1-3.1,2.4-5c0.3-1.8,0.1-3.7-0.7-5.4c-0.8-1.7-1.9-3.1-3.4-4.2
					s-3.2-1.6-5.1-1.6H304.3c-2.6,0-5.1,0.6-7.4,1.6c-2.4,1-4.4,2.6-6.2,4.5l-80.1,89c-1.2,1.3-2.1,3.1-2.4,5
					c-0.3,1.8-0.1,3.7,0.7,5.4c0.8,1.7,1.9,3.1,3.4,4.2C213.7,284.7,215.6,285.2,217.4,285.2z"/>
			</g>
		</g>
	</g>
	<g>
		<g>
			
				<linearGradient id="SVGID_5_" gradientUnits="userSpaceOnUse" x1="412.4059" y1="129.434" x2="955.0455" y2="424.4074" gradientTransform="matrix(0.8853 7.535331e-04 7.422647e-04 -0.872 18.2409 946.4739)">
				<stop  offset="0" style="stop-color:#00FFDB"/>
				<stop  offset="0.3971" style="stop-color:#9945FF"/>
				<stop  offset="0.7315" style="stop-color:#EB54BC"/>
				<stop  offset="1" style="stop-color:#FF754A"/>
			</linearGradient>
			<path class="st6" d="M482.4,666.7l0.2,0l-47.8,25.4l-7.1-27.9l60.1-31.6l31.7,0l-0.2,275l-36.9,0l0.2-240.9L482.4,666.7z"/>
			
				<linearGradient id="SVGID_6_" gradientUnits="userSpaceOnUse" x1="397.9163" y1="631.0327" x2="935.5858" y2="923.3044" gradientTransform="matrix(0.8912 7.585355e-04 -7.415494e-04 0.8711 39.9625 75.5578)">
				<stop  offset="0" style="stop-color:#00FFDB"/>
				<stop  offset="0.3971" style="stop-color:#9945FF"/>
				<stop  offset="0.7315" style="stop-color:#EB54BC"/>
				<stop  offset="1" style="stop-color:#FF754A"/>
			</linearGradient>
			<path class="st7" d="M769.9,772.2c-0.1,93.8-35.7,145.5-98.2,145.5c-55.2,0-92.4-50.6-93.2-141.8c0.1-92.5,40.9-143.4,98.2-143.4
				C736.2,632.7,770,684.5,769.9,772.2z M616.7,776.4c-0.1,71.7,22.5,112.5,57.2,112.5c39.1,0,57.8-44.5,57.8-114.9
				c0.1-67.9-17.7-112.5-57.2-112.5C641.1,661.5,616.7,701.3,616.7,776.4z"/>
			
				<linearGradient id="SVGID_7_" gradientUnits="userSpaceOnUse" x1="524.1731" y1="-59.2038" x2="964.9242" y2="180.384" gradientTransform="matrix(0.9436 8.031470e-04 8.049172e-04 -0.9456 -1.1191 949.384)">
				<stop  offset="0" style="stop-color:#00FFDB"/>
				<stop  offset="0.3971" style="stop-color:#9945FF"/>
				<stop  offset="0.7315" style="stop-color:#EB54BC"/>
				<stop  offset="1" style="stop-color:#FF754A"/>
			</linearGradient>
			<path class="st8" d="M954.3,913.8l-32.1-55.9c-13.1-21.4-21.3-35.3-29.2-49.9l-0.4,0c-7.1,14.6-14.3,28.2-27.4,50.3l-30.4,55.5
				l-37.2,0l77.1-127.6l-73.8-124.7l37.5,0l33.3,59.4c9.4,16.5,16.4,29.3,23.2,42.9l0.7,0c7.1-15,13.6-26.7,23-42.9l34.6-59.4
				l36.9,0L914,783.4L991.8,912l-37.7,1.8L954.3,913.8z"/>
		</g>
	</g>
</g>
</svg>
